<svg width="114" height="138" viewBox="0 0 114 138" fill="none" xmlns="http://www.w3.org/2000/svg">
<path d="M111.541 5.49741C111.541 6.16773 110.998 6.71045 110.327 6.71045C109.657 6.71045 109.114 6.16773 109.114 5.49741C109.114 4.82709 109.657 4.28343 110.327 4.28343C110.998 4.28343 111.541 4.82709 111.541 5.49741Z" fill="#F8A1AA"/>
<path d="M107.826 6.71058C107.826 7.3809 107.283 7.92456 106.612 7.92456C105.942 7.92456 105.399 7.3809 105.399 6.71058C105.399 6.04118 105.942 5.49754 106.612 5.49754C107.283 5.49754 107.826 6.04118 107.826 6.71058Z" fill="#F8A1AA"/>
<path d="M110.915 1.21302C110.915 1.88426 110.371 2.427 109.702 2.427C109.031 2.427 108.488 1.88426 108.488 1.21302C108.488 0.543621 109.031 -1.96286e-05 109.702 -1.96286e-05C110.371 -1.96286e-05 110.915 0.543621 110.915 1.21302Z" fill="#F8A1AA"/>
<path d="M107.275 2.90493C107.275 3.57525 106.731 4.1189 106.061 4.1189C105.39 4.1189 104.848 3.57525 104.848 2.90493C104.848 2.23554 105.39 1.69187 106.061 1.69187C106.731 1.69187 107.275 2.23554 107.275 2.90493Z" fill="#F8A1AA"/>
<path d="M109.444 10.5169C109.444 11.1863 108.901 11.73 108.231 11.73C107.56 11.73 107.017 11.1863 107.017 10.5169C107.017 9.84662 107.56 9.30296 108.231 9.30296C108.901 9.30296 109.444 9.84662 109.444 10.5169Z" fill="#F8A1AA"/>
<path d="M31.1788 37.0969C31.1788 39.1042 29.5518 40.7314 27.5445 40.7314C25.5371 40.7314 23.9097 39.1042 23.9097 37.0969C23.9097 35.0897 25.5371 33.4615 27.5445 33.4615C29.5518 33.4615 31.1788 35.0897 31.1788 37.0969Z" fill="#F8A1AA"/>
<path d="M36.0254 51.5249C36.0254 53.5331 34.3983 55.1604 32.3907 55.1604C30.3837 55.1604 28.7559 53.5331 28.7559 51.5249C28.7559 49.5177 30.3837 47.8904 32.3907 47.8904C34.3983 47.8904 36.0254 49.5177 36.0254 51.5249Z" fill="#F8A1AA"/>
<path d="M31.1788 80.273C31.1788 82.2812 29.5518 83.9084 27.5445 83.9084C25.5371 83.9084 23.9097 82.2812 23.9097 80.273C23.9097 78.2657 25.5371 76.6385 27.5445 76.6385C29.5518 76.6385 31.1788 78.2657 31.1788 80.273Z" fill="#F8A1AA"/>
<path d="M20.0508 91.6729C20.0508 93.6811 18.4229 95.3083 16.416 95.3083C14.4082 95.3083 12.7812 93.6811 12.7812 91.6729C12.7812 89.6656 14.4082 88.0384 16.416 88.0384C18.4229 88.0384 20.0508 89.6656 20.0508 91.6729Z" fill="#F8A1AA"/>
<path d="M8.9221 95.3084C8.9221 97.3156 7.29465 98.9429 5.28692 98.9429C3.27994 98.9429 1.65259 97.3156 1.65259 95.3084C1.65259 93.3011 3.27994 91.6729 5.28692 91.6729C7.29465 91.6729 8.9221 93.3011 8.9221 95.3084Z" fill="#F8A1AA"/>
<path d="M18.1747 78.8416C18.1747 80.8488 16.5468 82.4761 14.5395 82.4761C12.5321 82.4761 10.9048 80.8488 10.9048 78.8416C10.9048 76.8334 12.5321 75.2061 14.5395 75.2061C16.5468 75.2061 18.1747 76.8334 18.1747 78.8416Z" fill="#F8A1AA"/>
<path d="M7.26978 83.9082C7.26978 85.9145 5.64243 87.5427 3.63545 87.5427C1.62772 87.5427 0 85.9145 0 83.9082C0 81.9009 1.62772 80.2728 3.63545 80.2728C5.64243 80.2728 7.26978 81.9009 7.26978 83.9082Z" fill="#F8A1AA"/>
<path d="M29.3066 65.0728C29.3066 67.0801 27.6793 68.7083 25.6723 68.7083C23.6646 68.7083 22.0371 67.0801 22.0371 65.0728C22.0371 63.0665 23.6646 61.4383 25.6723 61.4383C27.6793 61.4383 29.3066 63.0665 29.3066 65.0728Z" fill="#F8A1AA"/>
<path d="M18.1747 60.915C18.1747 62.9223 16.5468 64.5496 14.5395 64.5496C12.5321 64.5496 10.9048 62.9223 10.9048 60.915C10.9048 58.9078 12.5321 57.2805 14.5395 57.2805C16.5468 57.2805 18.1747 58.9078 18.1747 60.915Z" fill="#F8A1AA"/>
<path d="M8.9221 68.7082C8.9221 70.7155 7.29465 72.3428 5.28692 72.3428C3.27994 72.3428 1.65259 70.7155 1.65259 68.7082C1.65259 66.7001 3.27994 65.0728 5.28692 65.0728C7.29465 65.0728 8.9221 66.7001 8.9221 68.7082Z" fill="#F8A1AA"/>
<path d="M60.6352 34.6736C60.6352 36.6799 59.0079 38.3081 57.0007 38.3081C54.9925 38.3081 53.3652 36.6799 53.3652 34.6736C53.3652 32.6663 54.9925 31.0391 57.0007 31.0391C59.0079 31.0391 60.6352 32.6663 60.6352 34.6736Z" fill="#F8A1AA"/>
<path d="M67.9043 47.8904C67.9043 49.8976 66.278 51.5249 64.2698 51.5249C62.2625 51.5249 60.6353 49.8976 60.6353 47.8904C60.6353 45.884 62.2625 44.2559 64.2698 44.2559C66.278 44.2559 67.9043 45.884 67.9043 47.8904Z" fill="#F8A1AA"/>
<path d="M76.582 30.5979C76.582 32.6052 74.9548 34.2324 72.9475 34.2324C70.9403 34.2324 69.313 32.6052 69.313 30.5979C69.313 28.5897 70.9403 26.9634 72.9475 26.9634C74.9548 26.9634 76.582 28.5897 76.582 30.5979Z" fill="#F8A1AA"/>
<path d="M51.4575 45.2471C51.4575 47.2544 49.8302 48.8826 47.823 48.8826C45.8157 48.8826 44.1875 47.2544 44.1875 45.2471C44.1875 43.2399 45.8157 41.6117 47.823 41.6117C49.8302 41.6117 51.4575 43.2399 51.4575 45.2471Z" fill="#F8A1AA"/>
<path d="M48.3735 59.7871C48.3735 61.7943 46.7462 63.4207 44.739 63.4207C42.7317 63.4207 41.1035 61.7943 41.1035 59.7871C41.1035 57.7789 42.7317 56.1516 44.739 56.1516C46.7462 56.1516 48.3735 57.7789 48.3735 59.7871Z" fill="#F8A1AA"/>
<path d="M57.0004 80.273C57.0004 82.2812 55.3732 83.9084 53.365 83.9084C51.3577 83.9084 49.7305 82.2812 49.7305 80.273C49.7305 78.2657 51.3577 76.6385 53.365 76.6385C55.3732 76.6385 57.0004 78.2657 57.0004 80.273Z" fill="#F8A1AA"/>
<path d="M55.0923 97.1252C55.0923 99.1325 53.465 100.76 51.4578 100.76C49.4505 100.76 47.8232 99.1325 47.8232 97.1252C47.8232 95.118 49.4505 93.4907 51.4578 93.4907C53.465 93.4907 55.0923 95.118 55.0923 97.1252Z" fill="#F8A1AA"/>
<path d="M42.5356 104.395C42.5356 106.402 40.9092 108.03 38.9014 108.03C36.8937 108.03 35.2666 106.402 35.2666 104.395C35.2666 102.388 36.8937 100.76 38.9014 100.76C40.9092 100.76 42.5356 102.388 42.5356 104.395Z" fill="#F8A1AA"/>
<path d="M38.4486 118.493C38.4486 120.501 36.8212 122.128 34.8139 122.128C32.8065 122.128 31.1787 120.501 31.1787 118.493C31.1787 116.486 32.8065 114.859 34.8139 114.859C36.8212 114.859 38.4486 116.486 38.4486 118.493Z" fill="#F8A1AA"/>
<path d="M23.4614 119.814C23.4614 121.823 21.834 123.45 19.8262 123.45C17.8192 123.45 16.1919 121.823 16.1919 119.814C16.1919 117.808 17.8192 116.181 19.8262 116.181C21.834 116.181 23.4614 117.808 23.4614 119.814Z" fill="#F8A1AA"/>
<path d="M66.9658 119.814C66.9658 121.823 65.3385 123.45 63.3313 123.45C61.324 123.45 59.6958 121.823 59.6958 119.814C59.6958 117.808 61.324 116.181 63.3313 116.181C65.3385 116.181 66.9658 117.808 66.9658 119.814Z" fill="#F8A1AA"/>
<path d="M80.8056 66.1749C80.8056 68.1821 79.1783 69.8103 77.1702 69.8103C75.1629 69.8103 73.5356 68.1821 73.5356 66.1749C73.5356 64.1676 75.1629 62.5394 77.1702 62.5394C79.1783 62.5394 80.8056 64.1676 80.8056 66.1749Z" fill="#F8A1AA"/>
<path d="M113.078 71.5715C113.078 73.5797 111.45 75.2061 109.444 75.2061C107.435 75.2061 105.808 73.5797 105.808 71.5715C105.808 69.5643 107.435 67.937 109.444 67.937C111.45 67.937 113.078 69.5643 113.078 71.5715Z" fill="#F8A1AA"/>
<path d="M102.504 83.9082C102.504 85.9145 100.877 87.5427 98.8694 87.5427C96.8621 87.5427 95.2349 85.9145 95.2349 83.9082C95.2349 81.9009 96.8621 80.2728 98.8694 80.2728C100.877 80.2728 102.504 81.9009 102.504 83.9082Z" fill="#F8A1AA"/>
<path d="M92.2603 74.4351C92.2603 76.4424 90.633 78.0706 88.6257 78.0706C86.6185 78.0706 84.9912 76.4424 84.9912 74.4351C84.9912 72.4288 86.6185 70.8006 88.6257 70.8006C90.633 70.8006 92.2603 72.4288 92.2603 74.4351Z" fill="#F8A1AA"/>
<path d="M46.881 29.8269C46.881 31.8342 45.2538 33.4614 43.2456 33.4614C41.2383 33.4614 39.6113 31.8342 39.6113 29.8269C39.6113 27.8187 41.2383 26.1924 43.2456 26.1924C45.2538 26.1924 46.881 27.8187 46.881 29.8269Z" fill="#F8A1AA"/>
<path d="M63.331 62.5394C63.331 64.5475 61.7037 66.1748 59.6956 66.1748C57.6883 66.1748 56.061 64.5475 56.061 62.5394C56.061 60.5321 57.6883 58.9057 59.6956 58.9057C61.7037 58.9057 63.331 60.5321 63.331 62.5394Z" fill="#F8A1AA"/>
<path d="M45.031 88.0386C45.031 90.0458 43.4038 91.6731 41.3965 91.6731C39.3886 91.6731 37.7612 90.0458 37.7612 88.0386C37.7612 86.0304 39.3886 84.4041 41.3965 84.4041C43.4038 84.4041 45.031 86.0304 45.031 88.0386Z" fill="#F8A1AA"/>
<path d="M32.9415 96.2441C32.9415 98.2514 31.3141 99.8787 29.3067 99.8787C27.2993 99.8787 25.6724 98.2514 25.6724 96.2441C25.6724 94.236 27.2993 92.6096 29.3067 92.6096C31.3141 92.6096 32.9415 94.236 32.9415 96.2441Z" fill="#F8A1AA"/>
<path d="M25.6722 107.259C25.6722 109.266 24.0444 110.893 22.037 110.893C20.0297 110.893 18.4023 109.266 18.4023 107.259C18.4023 105.251 20.0297 103.624 22.037 103.624C24.0444 103.624 25.6722 105.251 25.6722 107.259Z" fill="#F8A1AA"/>
<path d="M13.7686 106.708C13.7686 108.716 12.1412 110.342 10.1335 110.342C8.12613 110.342 6.49878 108.716 6.49878 106.708C6.49878 104.7 8.12613 103.073 10.1335 103.073C12.1412 103.073 13.7686 104.7 13.7686 106.708Z" fill="#F8A1AA"/>
<path d="M80.8056 54.1692C80.8056 56.1755 79.1783 57.8037 77.1702 57.8037C75.1629 57.8037 73.5356 56.1755 73.5356 54.1692C73.5356 52.1619 75.1629 50.5347 77.1702 50.5347C79.1783 50.5347 80.8056 52.1619 80.8056 54.1692Z" fill="#F8A1AA"/>
<path d="M94.3535 56.5925C94.3535 58.5998 92.7253 60.2271 90.718 60.2271C88.7108 60.2271 87.0835 58.5998 87.0835 56.5925C87.0835 54.5853 88.7108 52.9571 90.718 52.9571C92.7253 52.9571 94.3535 54.5853 94.3535 56.5925Z" fill="#F8A1AA"/>
<path d="M97.9882 43.7602C97.9882 45.7675 96.361 47.3938 94.3537 47.3938C92.3455 47.3938 90.7183 45.7675 90.7183 43.7602C90.7183 41.752 92.3455 40.1248 94.3537 40.1248C96.361 40.1248 97.9882 41.752 97.9882 43.7602Z" fill="#F8A1AA"/>
<path d="M107.612 56.1514C107.612 58.1587 105.984 59.7869 103.976 59.7869C101.969 59.7869 100.342 58.1587 100.342 56.1514C100.342 54.1442 101.969 52.516 103.976 52.516C105.984 52.516 107.612 54.1442 107.612 56.1514Z" fill="#F8A1AA"/>
<path d="M84.9912 40.7314C84.9912 42.7387 83.3639 44.366 81.3557 44.366C79.3484 44.366 77.7212 42.7387 77.7212 40.7314C77.7212 38.7233 79.3484 37.0969 81.3557 37.0969C83.3639 37.0969 84.9912 38.7233 84.9912 40.7314Z" fill="#F8A1AA"/>
<path d="M70.0112 74.4351C70.0112 76.4424 68.3839 78.0706 66.3767 78.0706C64.3694 78.0706 62.7412 76.4424 62.7412 74.4351C62.7412 72.4288 64.3694 70.8006 66.3767 70.8006C68.3839 70.8006 70.0112 72.4288 70.0112 74.4351Z" fill="#F8A1AA"/>
<path d="M80.8056 83.9082C80.8056 85.9145 79.1783 87.5427 77.1702 87.5427C75.1629 87.5427 73.5356 85.9145 73.5356 83.9082C73.5356 81.9009 75.1629 80.2728 77.1702 80.2728C79.1783 80.2728 80.8056 81.9009 80.8056 83.9082Z" fill="#F8A1AA"/>
<path d="M89.0253 92.3885C89.0253 94.3957 87.3981 96.0239 85.3899 96.0239C83.3835 96.0239 81.7554 94.3957 81.7554 92.3885C81.7554 90.3821 83.3835 88.7549 85.3899 88.7549C87.3981 88.7549 89.0253 90.3821 89.0253 92.3885Z" fill="#F8A1AA"/>
<path d="M101.182 97.1252C101.182 99.1325 99.5553 100.76 97.5471 100.76C95.5399 100.76 93.9126 99.1325 93.9126 97.1252C93.9126 95.118 95.5399 93.4907 97.5471 93.4907C99.5553 93.4907 101.182 95.118 101.182 97.1252Z" fill="#F8A1AA"/>
<path d="M114 88.9751C114 90.9824 112.373 92.6096 110.365 92.6096C108.358 92.6096 106.73 90.9824 106.73 88.9751C106.73 86.9669 108.358 85.3396 110.365 85.3396C112.373 85.3396 114 86.9669 114 88.9751Z" fill="#F8A1AA"/>
<path d="M109.444 104.395C109.444 106.402 107.816 108.03 105.808 108.03C103.801 108.03 102.174 106.402 102.174 104.395C102.174 102.388 103.801 100.76 105.808 100.76C107.816 100.76 109.444 102.388 109.444 104.395Z" fill="#F8A1AA"/>
<path d="M100.342 117.062C100.342 119.069 98.715 120.696 96.7077 120.696C94.7005 120.696 93.0723 119.069 93.0723 117.062C93.0723 115.054 94.7005 113.426 96.7077 113.426C98.715 113.426 100.342 115.054 100.342 117.062Z" fill="#F8A1AA"/>
<path d="M89.8925 107.259C89.8925 109.266 88.2653 110.893 86.2571 110.893C84.2507 110.893 82.6226 109.266 82.6226 107.259C82.6226 105.251 84.2507 103.624 86.2571 103.624C88.2653 103.624 89.8925 105.251 89.8925 107.259Z" fill="#F8A1AA"/>
<path d="M62.7412 107.259C62.7412 109.266 61.1149 110.893 59.1067 110.893C57.0994 110.893 55.4722 109.266 55.4722 107.259C55.4722 105.251 57.0994 103.624 59.1067 103.624C61.1149 103.624 62.7412 105.251 62.7412 107.259Z" fill="#F8A1AA"/>
<path d="M70.6001 133.914C70.6001 135.921 68.9738 137.549 66.9656 137.549C64.9583 137.549 63.3311 135.921 63.3311 133.914C63.3311 131.907 64.9583 130.279 66.9656 130.279C68.9738 130.279 70.6001 131.907 70.6001 133.914Z" fill="#F8A1AA"/>
<path d="M53.3652 117.062C53.3652 119.069 51.738 120.696 49.7307 120.696C47.7235 120.696 46.0962 119.069 46.0962 117.062C46.0962 115.054 47.7235 113.426 49.7307 113.426C51.738 113.426 53.3652 115.054 53.3652 117.062Z" fill="#F8A1AA"/>
<path d="M56.061 130.279C56.061 132.287 54.4338 133.914 52.4265 133.914C50.4192 133.914 48.792 132.287 48.792 130.279C48.792 128.272 50.4192 126.644 52.4265 126.644C54.4338 126.644 56.061 128.272 56.061 130.279Z" fill="#F8A1AA"/>
<path d="M41.1032 131.27C41.1032 133.277 39.4765 134.905 37.4688 134.905C35.4618 134.905 33.8345 133.277 33.8345 131.27C33.8345 129.263 35.4618 127.635 37.4688 127.635C39.4765 127.635 41.1032 129.263 41.1032 131.27Z" fill="#F8A1AA"/>
<path d="M101.182 66.1749C101.182 68.1821 99.5553 69.8103 97.5471 69.8103C95.5399 69.8103 93.9126 68.1821 93.9126 66.1749C93.9126 64.1676 95.5399 62.5394 97.5471 62.5394C99.5553 62.5394 101.182 64.1676 101.182 66.1749Z" fill="#F8A1AA"/>
<path d="M43.2455 73.0039C43.2455 75.0112 41.6192 76.6384 39.6113 76.6384C37.6035 76.6384 35.9766 75.0112 35.9766 73.0039C35.9766 70.9966 37.6035 69.3694 39.6113 69.3694C41.6192 69.3694 43.2455 70.9966 43.2455 73.0039Z" fill="#F8A1AA"/>
<path d="M19.8263 47.3939C19.8263 49.402 18.1992 51.0293 16.1919 51.0293C14.1842 51.0293 12.5571 49.402 12.5571 47.3939C12.5571 45.3866 14.1842 43.7603 16.1919 43.7603C18.1992 43.7603 19.8263 45.3866 19.8263 47.3939Z" fill="#F8A1AA"/>
<path d="M70.0112 90.8465C70.0112 92.8547 68.3839 94.4819 66.3767 94.4819C64.3694 94.4819 62.7412 92.8547 62.7412 90.8465C62.7412 88.8402 64.3694 87.2129 66.3767 87.2129C68.3839 87.2129 70.0112 88.8402 70.0112 90.8465Z" fill="#F8A1AA"/>
<path d="M77.2803 105.111C77.2803 107.118 75.6539 108.745 73.6457 108.745C71.6385 108.745 70.0112 107.118 70.0112 105.111C70.0112 103.104 71.6385 101.476 73.6457 101.476C75.6539 101.476 77.2803 103.104 77.2803 105.111Z" fill="#F8A1AA"/>
<path d="M80.2168 119.374C80.2168 121.382 78.5895 123.01 76.5823 123.01C74.575 123.01 72.9478 121.382 72.9478 119.374C72.9478 117.367 74.575 115.74 76.5823 115.74C78.5895 115.74 80.2168 117.367 80.2168 119.374Z" fill="#F8A1AA"/>
<path d="M87.0835 127.636C87.0835 129.643 85.4562 131.27 83.449 131.27C81.4408 131.27 79.8145 129.643 79.8145 127.636C79.8145 125.628 81.4408 124.001 83.449 124.001C85.4562 124.001 87.0835 125.628 87.0835 127.636Z" fill="#F8A1AA"/>
</svg>
