<svg width="89" height="35" viewBox="0 0 89 35" fill="none" xmlns="http://www.w3.org/2000/svg">
<path d="M8.88257 15.2875L0.491943 7.88759L0.491943 2.11469L8.88257 9.51353L18.7061 0.851795L28.5289 9.51353L38.3553 0.852169L48.1818 9.51389L58.0083 0.852169L67.8311 9.51389L77.6575 0.852169L88.918 10.776V16.5486L77.6575 6.62544L67.8311 15.2868L58.0083 6.62544L48.1818 15.2868L38.3553 6.62544L28.5289 15.2875L18.7061 6.6258L8.88257 15.2875Z" fill="#F8A1AA"/>
<path d="M8.88257 33.2513L0.491943 25.851L0.491943 20.0784L8.88257 27.4773L18.7061 18.8155L28.5289 27.4773L38.3553 18.8159L48.1818 27.4776L58.0083 18.8159L67.8311 27.4776L77.6575 18.8159L88.918 28.7398V34.5127L77.6575 24.5888L67.8311 33.2509L58.0083 24.5888L48.1818 33.2509L38.3553 24.5888L28.5289 33.2513L18.7061 24.5895L8.88257 33.2513Z" fill="#FAC2C9"/>
</svg>
