<svg width="16" height="17" viewBox="0 0 16 17" fill="none" xmlns="http://www.w3.org/2000/svg">
<path d="M0 0.406249H4.5625L4.96875 2.625C5.61458 1.83333 6.35417 1.20833 7.1875 0.75C8.02083 0.270833 8.95833 0.03125 10 0.03125C10.9792 0.03125 11.9063 0.28125 12.7812 0.78125C13.6563 1.26042 14.3646 1.98958 14.9062 2.96875C15.4688 3.92708 15.75 5.14583 15.75 6.625V16.8125H11.0625V7.34375C11.0625 6.65625 10.9375 6.09375 10.6875 5.65625C10.4583 5.19792 10.1354 4.86458 9.71875 4.65625C9.30208 4.44792 8.82292 4.34375 8.28125 4.34375C7.76042 4.34375 7.21875 4.44792 6.65625 4.65625C6.11458 4.86458 5.61458 5.17708 5.15625 5.59375V16.8125H0.46875V4.3125C0.46875 3.875 0.447917 3.48958 0.40625 3.15625C0.385417 2.80208 0.333333 2.39583 0.25 1.9375L0 0.406249Z" fill="black"/>
</svg>
