<svg width="10" height="30" viewBox="0 0 10 30" fill="none" xmlns="http://www.w3.org/2000/svg">
<path d="M0.458252 29.4688L0.958252 25.5938C1.29159 25.6771 1.58325 25.7396 1.83325 25.7812C2.06242 25.8437 2.302 25.875 2.552 25.875C3.21867 25.875 3.7395 25.6875 4.1145 25.3125C4.51034 24.9375 4.70825 24.2708 4.70825 23.3125V7.40625H9.39575V23.5625C9.39575 25.7083 8.85409 27.3125 7.77075 28.375C6.70825 29.4375 5.28117 29.9688 3.4895 29.9688C3.01034 29.9688 2.4895 29.9167 1.927 29.8125C1.3645 29.7292 0.874919 29.6146 0.458252 29.4688Z" fill="black"/>
<path d="M5.1145 0.812499C4.6145 1.33333 4.3645 1.95833 4.3645 2.6875C4.3645 3.41667 4.6145 4.05208 5.1145 4.59375C5.6145 5.11458 6.26034 5.375 7.052 5.375C7.84367 5.375 8.4895 5.11458 8.9895 4.59375C9.4895 4.05208 9.7395 3.41667 9.7395 2.6875C9.7395 1.95833 9.4895 1.33333 8.9895 0.812499C8.4895 0.270833 7.84367 0 7.052 0C6.26034 0 5.6145 0.270833 5.1145 0.812499Z" fill="#9747FF"/>
</svg>
