<svg width="17" height="18" viewBox="0 0 17 18" fill="none" xmlns="http://www.w3.org/2000/svg">
<path d="M0.0583496 8.625C0.0583496 6.85417 0.4021 5.33333 1.0896 4.0625C1.7771 2.77083 2.72502 1.78125 3.93335 1.09375C5.16252 0.385417 6.55835 0.03125 8.12085 0.03125C9.70418 0.03125 11.1 0.385417 12.3083 1.09375C13.5167 1.78125 14.4646 2.77083 15.1521 4.0625C15.8396 5.33333 16.1833 6.85417 16.1833 8.625C16.1833 10.375 15.8396 11.8958 15.1521 13.1875C14.4646 14.4583 13.5167 15.4479 12.3083 16.1562C11.1 16.8438 9.70418 17.1875 8.12085 17.1875C6.55835 17.1875 5.16252 16.8438 3.93335 16.1562C2.72502 15.4479 1.7771 14.4583 1.0896 13.1875C0.4021 11.8958 0.0583496 10.375 0.0583496 8.625ZM4.80835 8.625C4.80835 9.72917 4.94377 10.6354 5.2146 11.3438C5.48543 12.0521 5.87085 12.5729 6.37085 12.9062C6.87085 13.2396 7.45418 13.4062 8.12085 13.4062C8.78752 13.4062 9.37085 13.2396 9.87085 12.9062C10.3708 12.5729 10.7563 12.0521 11.0271 11.3438C11.2979 10.6354 11.4333 9.72917 11.4333 8.625C11.4333 7.52083 11.2979 6.61458 11.0271 5.90625C10.7563 5.19792 10.3708 4.67708 9.87085 4.34375C9.37085 3.98958 8.78752 3.8125 8.12085 3.8125C7.45418 3.8125 6.87085 3.98958 6.37085 4.34375C5.87085 4.67708 5.48543 5.19792 5.2146 5.90625C4.94377 6.61458 4.80835 7.52083 4.80835 8.625Z" fill="black"/>
</svg>
