<svg width="17" height="23" viewBox="0 0 17 23" fill="none" xmlns="http://www.w3.org/2000/svg">
<path d="M0.299805 0.40625H5.4248L8.6748 10.5938L11.8623 0.40625H16.8623L10.4873 16.8125C9.96647 18.1458 9.40397 19.2708 8.7998 20.1875C8.21647 21.1042 7.50814 21.7917 6.6748 22.25C5.8623 22.7292 4.84147 22.9688 3.6123 22.9688C3.1748 22.9688 2.70605 22.9167 2.20605 22.8125C1.72689 22.7292 1.28939 22.6146 0.893555 22.4688L1.39355 18.6875C1.68522 18.7708 1.96647 18.8333 2.2373 18.875C2.50814 18.9375 2.77897 18.9688 3.0498 18.9688C3.7998 18.9688 4.4248 18.7708 4.9248 18.375C5.4248 17.9792 5.81022 17.4375 6.08105 16.75L6.3623 16.0313L0.299805 0.40625Z" fill="black"/>
</svg>
