<svg viewBox="0 0 35 40" fill="none" xmlns="http://www.w3.org/2000/svg">
<path d="M32.5 2.5L2.49219 2.5C1.11719 2.5 4.95168e-08 3.63281 1.10303e-07 5.02344L1.4196e-06 34.9766C1.48038e-06 36.3672 1.11719 37.5 2.49219 37.5L32.5 37.5C33.875 37.5 35 36.3672 35 34.9766L35 5.02344C35 3.63281 33.875 2.5 32.5 2.5ZM10.5781 32.5L5.39063 32.5L5.39063 15.7969L10.5859 15.7969L10.5859 32.5L10.5781 32.5ZM7.98438 13.5156C6.32031 13.5156 4.97656 12.1641 4.97656 10.5078C4.97656 8.85156 6.32031 7.5 7.98437 7.5C9.64063 7.5 10.9922 8.85156 10.9922 10.5078C10.9922 12.1719 9.64844 13.5156 7.98438 13.5156ZM30.0234 32.5L24.8359 32.5L24.8359 24.375C24.8359 22.4375 24.7969 19.9453 22.1406 19.9453C19.4375 19.9453 19.0234 22.0547 19.0234 24.2344L19.0234 32.5L13.8359 32.5L13.8359 15.7969L18.8125 15.7969L18.8125 18.0781L18.8828 18.0781C19.5781 16.7656 21.2734 15.3828 23.7969 15.3828C29.0469 15.3828 30.0234 18.8437 30.0234 23.3437L30.0234 32.5Z" fill="black"/>
</svg>
