<svg width="21" height="24" viewBox="0 0 21 24" fill="none" xmlns="http://www.w3.org/2000/svg">
<path d="M18 1.5C19.6547 1.5 21 2.84531 21 4.5V19.5C21 21.1547 19.6547 22.5 18 22.5H3C1.34531 22.5 0 21.1547 0 19.5V4.5C0 2.84531 1.34531 1.5 3 1.5H18ZM7.5 6.75C6.87656 6.75 6.375 7.25156 6.375 7.875C6.375 8.49844 6.87656 9 7.5 9H11.9109L5.57812 15.3281C5.1375 15.7687 5.1375 16.4812 5.57812 16.9172C6.01875 17.3531 6.73125 17.3578 7.16719 16.9172L13.4953 10.5891L13.5 15.375C13.5 15.9984 14.0016 16.5 14.625 16.5C15.2484 16.5 15.75 15.9984 15.75 15.375V7.875C15.75 7.25156 15.2484 6.75 14.625 6.75H7.5Z" fill="#9747FF"/>
</svg>
