<svg viewBox="0 0 35 40" fill="none" xmlns="http://www.w3.org/2000/svg">
<path d="M5 2.5C2.24219 2.5 9.80091e-08 4.74219 2.18557e-07 7.5L1.31134e-06 32.5C1.43189e-06 35.2578 2.24219 37.5 5 37.5L30 37.5C32.7578 37.5 35 35.2578 35 32.5L35 7.5C35 4.74219 32.7578 2.5 30 2.5L5 2.5ZM28.2109 9.0625L20.1016 18.3281L29.6406 30.9375L22.1719 30.9375L16.3281 23.2891L9.63281 30.9375L5.92188 30.9375L14.5938 21.0234L5.44531 9.0625L13.1016 9.0625L18.3906 16.0547L24.5 9.0625L28.2109 9.0625ZM25.2578 28.7187L11.9844 11.1641L9.77344 11.1641L23.1953 28.7187L25.25 28.7187L25.2578 28.7187Z" fill="black"/>
</svg>
